<svg xmlns="http://www.w3.org/2000/svg" viewBox="0 0 48 48">
	<path d="M44,5.476H4c-2.2,0-4,1.8-4,4v12.481h12.301l2.688-6.877c0.307-0.785,1.094-1.299,1.914-1.271c0.842,0.022,1.581,0.569,1.847,1.368l3.803,11.437l4.104-9.763c0.302-0.717,0.991-1.194,1.77-1.223c0.802-0.034,1.503,0.396,1.855,1.089l2.676,5.241h2.709c1.104,0,2,0.896,2,2s-0.896,2-2,2h-3.935c-0.752,0-1.438-0.423-1.78-1.091l-1.275-2.5l-4.499,10.7c-0.312,0.744-1.041,1.227-1.843,1.227c-0.026,0-0.052,0-0.078-0.002c-0.833-0.031-1.558-0.576-1.821-1.367L16.7,21.69l-1.17,2.995c-0.3,0.768-1.039,1.271-1.863,1.271H0v12.567c0,2.2,1.8,4,4,4h40c2.2,0,4-1.8,4-4V9.474C48,7.276,46.2,5.476,44,5.476z"/>
</svg>
