<svg xmlns="http://www.w3.org/2000/svg" viewBox="0 0 54.849 54.849">
	<path d="M54.497,39.614l-10.363-4.49l-14.917,5.968c-0.537,0.214-1.165,0.319-1.793,0.319c-0.627,0-1.254-0.104-1.79-0.318l-14.921-5.968L0.351,39.614c-0.472,0.203-0.467,0.524,0.01,0.716L26.56,50.81c0.477,0.191,1.251,0.191,1.729,0L54.488,40.33C54.964,40.139,54.969,39.817,54.497,39.614z"/>
	<path d="M54.497,27.512l-10.364-4.491l-14.916,5.966c-0.536,0.215-1.165,0.321-1.792,0.321c-0.628,0-1.256-0.106-1.793-0.321l-14.918-5.966L0.351,27.512c-0.472,0.203-0.467,0.523,0.01,0.716L26.56,38.706c0.477,0.19,1.251,0.19,1.729,0l26.199-10.479C54.964,28.036,54.969,27.716,54.497,27.512z"/>
	<path d="M0.361,16.125l13.662,5.465l12.537,5.015c0.477,0.191,1.251,0.191,1.729,0l12.541-5.016l13.658-5.463c0.477-0.191,0.48-0.511,0.01-0.716L28.277,4.048c-0.471-0.204-1.236-0.204-1.708,0L0.351,15.41C-0.121,15.614-0.116,15.935,0.361,16.125z"/>
</svg>
