<svg xmlns="http://www.w3.org/2000/svg" viewBox="0 0 50.244 50.244">
	<path d="M27.587,29.787v-1.117c0-1.36-1.104-2.463-2.463-2.463c-1.361,0-2.464,1.103-2.464,2.463v1.117c0,1.359,1.103,2.463,2.464,2.463C26.483,32.25,27.587,31.147,27.587,29.787z"/>
	<path d="M29.276,31.149c-0.545,1.787-2.19,3.1-4.152,3.1c-1.963,0-3.608-1.312-4.154-3.1H4.001c-1.071,0-2.083-0.249-2.991-0.681v11.267c0,2.2,1.8,4,4,4h40.226c2.2,0,4-1.8,4-4V30.469c-0.908,0.432-1.92,0.681-2.99,0.681L29.276,31.149L29.276,31.149z"/>
	<path d="M46.078,10.917h-9.602c-0.579-3.626-3.722-6.408-7.508-6.408h-7.694c-3.787,0-6.927,2.782-7.508,6.408h-9.6c-2.292,0-4.167,1.8-4.167,4v9.233c0,2.208,1.791,4,4,4h16.78c0.057-1.149,0.551-2.186,1.332-2.933c0.024-0.022,0.052-0.041,0.077-0.063c0.173-0.159,0.353-0.309,0.55-0.439c0.07-0.047,0.15-0.079,0.223-0.121c0.162-0.093,0.322-0.19,0.497-0.262c0.137-0.057,0.285-0.09,0.429-0.133c0.124-0.037,0.242-0.086,0.371-0.112C24.538,24.03,24.827,24,25.122,24c0.296,0,0.584,0.031,0.863,0.087c0.128,0.026,0.247,0.075,0.372,0.112c0.144,0.043,0.29,0.076,0.429,0.134c0.174,0.072,0.333,0.168,0.495,0.261c0.073,0.043,0.153,0.075,0.225,0.122c0.197,0.129,0.376,0.279,0.549,0.438c0.025,0.023,0.056,0.041,0.078,0.065c0.782,0.748,1.275,1.782,1.332,2.933h16.78c2.209,0,4-1.791,4-4v-9.233C50.245,12.717,48.37,10.917,46.078,10.917z M17.619,10.917c0.51-1.541,1.947-2.664,3.657-2.664h7.694c1.709,0,3.146,1.123,3.656,2.664H17.619z"/>
</svg>
