<svg xmlns="http://www.w3.org/2000/svg" viewBox="0 0 48 48">
	<path d="M44,4.982H4c-2.2,0-4,1.8-4,4v30.036c0,2.2,1.8,4,4,4h40c2.2,0,4-1.8,4-4V8.982C48,6.782,46.2,4.982,44,4.982zM20.204,12.789l9.593,6.55l-9.593,6.55V12.789z M40.001,35.212H18.875c-0.57,1.239-1.816,2.104-3.27,2.104s-2.699-0.866-3.27-2.104H8c-0.829,0-1.5-0.673-1.5-1.5c0-0.828,0.671-1.5,1.5-1.5h4.336c0.57-1.24,1.815-2.106,3.27-2.106s2.7,0.866,3.27,2.106h21.126c0.828,0,1.5,0.672,1.5,1.5C41.502,34.54,40.829,35.212,40.001,35.212z"/>
	<circle cx="15.605" cy="33.712" r="1.397"/>
</svg>
