<?xml version="1.0" encoding="UTF-8" standalone="no"?>
<!DOCTYPE svg PUBLIC "-//W3C//DTD SVG 1.1//EN" "http://www.w3.org/Graphics/SVG/1.1/DTD/svg11.dtd">
<svg width="100%" height="100%" viewBox="0 0 100 100" version="1.1" xmlns="http://www.w3.org/2000/svg" xmlns:xlink="http://www.w3.org/1999/xlink" xml:space="preserve" style="fill-rule:evenodd;clip-rule:evenodd;stroke-linejoin:round;stroke-miterlimit:1.41421;">
    <clipPath id="_clip1">
        <path d="M50.063,12.244c12.284,0 13.739,0.047 18.591,0.269c4.485,0.204 6.922,0.954 8.542,1.583c2.148,0.835 3.681,1.832 5.291,3.441c1.609,1.611 2.606,3.144 3.441,5.291c0.63,1.62 1.38,4.057 1.584,8.542c0.222,4.852 0.269,6.307 0.269,18.591c0,12.284 -0.047,13.739 -0.269,18.591c-0.204,4.486 -0.954,6.922 -1.584,8.542c-0.835,2.149 -1.832,3.681 -3.441,5.291c-1.61,1.609 -3.143,2.606 -5.291,3.441c-1.62,0.631 -4.057,1.38 -8.542,1.584c-4.851,0.222 -6.306,0.269 -18.591,0.269c-12.285,0 -13.74,-0.047 -18.591,-0.269c-4.485,-0.204 -6.922,-0.953 -8.542,-1.584c-2.148,-0.835 -3.681,-1.832 -5.291,-3.441c-1.609,-1.61 -2.606,-3.142 -3.441,-5.291c-0.63,-1.62 -1.379,-4.056 -1.585,-8.542c-0.221,-4.852 -0.268,-6.307 -0.268,-18.591c0,-12.284 0.047,-13.739 0.268,-18.591c0.206,-4.485 0.955,-6.922 1.585,-8.542c0.835,-2.147 1.832,-3.68 3.441,-5.291c1.61,-1.609 3.143,-2.606 5.291,-3.441c1.62,-0.629 4.057,-1.379 8.542,-1.583c4.852,-0.222 6.307,-0.269 18.591,-0.269Zm0,-8.29c-12.495,0 -14.061,0.053 -18.969,0.277c-4.897,0.223 -8.241,1.002 -11.167,2.139c-3.026,1.176 -5.591,2.748 -8.149,5.306c-2.558,2.558 -4.131,5.123 -5.306,8.149c-1.138,2.926 -1.916,6.271 -2.139,11.167c-0.224,4.908 -0.277,6.474 -0.277,18.969c0,12.495 0.053,14.061 0.277,18.969c0.223,4.897 1.001,8.241 2.139,11.168c1.175,3.025 2.748,5.59 5.306,8.148c2.558,2.558 5.123,4.131 8.149,5.307c2.926,1.137 6.27,1.915 11.167,2.138c4.908,0.224 6.474,0.277 18.969,0.277c12.495,0 14.061,-0.053 18.969,-0.277c4.897,-0.223 8.241,-1.001 11.167,-2.138c3.026,-1.176 5.591,-2.749 8.149,-5.307c2.558,-2.558 4.131,-5.123 5.306,-8.148c1.138,-2.927 1.916,-6.271 2.139,-11.168c0.224,-4.908 0.277,-6.474 0.277,-18.969c0,-12.495 -0.053,-14.061 -0.277,-18.969c-0.223,-4.896 -1.001,-8.241 -2.139,-11.167c-1.175,-3.026 -2.748,-5.591 -5.306,-8.149c-2.558,-2.558 -5.123,-4.13 -8.149,-5.306c-2.926,-1.137 -6.27,-1.916 -11.167,-2.139c-4.908,-0.224 -6.474,-0.277 -18.969,-0.277Z" clip-rule="nonzero"/>
    </clipPath>
    <g clip-path="url(#_clip1)">
        <path d="M57.49,-30l72.51,87.49l-87.49,72.51l-72.51,-87.49l87.49,-72.51Z" style="fill:url(#_Linear2);fill-rule:nonzero;"/>
    </g>
    <clipPath id="_clip3">
        <path d="M50.063,12.244c12.284,0 13.739,0.047 18.591,0.269c4.485,0.204 6.922,0.954 8.542,1.583c2.148,0.835 3.681,1.832 5.291,3.441c1.609,1.611 2.606,3.144 3.441,5.291c0.63,1.62 1.38,4.057 1.584,8.542c0.222,4.852 0.269,6.307 0.269,18.591c0,12.284 -0.047,13.739 -0.269,18.591c-0.204,4.486 -0.954,6.922 -1.584,8.542c-0.835,2.149 -1.832,3.681 -3.441,5.291c-1.61,1.609 -3.143,2.606 -5.291,3.441c-1.62,0.631 -4.057,1.38 -8.542,1.584c-4.851,0.222 -6.306,0.269 -18.591,0.269c-12.285,0 -13.74,-0.047 -18.591,-0.269c-4.485,-0.204 -6.922,-0.953 -8.542,-1.584c-2.148,-0.835 -3.681,-1.832 -5.291,-3.441c-1.609,-1.61 -2.606,-3.142 -3.441,-5.291c-0.63,-1.62 -1.379,-4.056 -1.585,-8.542c-0.221,-4.852 -0.268,-6.307 -0.268,-18.591c0,-12.284 0.047,-13.739 0.268,-18.591c0.206,-4.485 0.955,-6.922 1.585,-8.542c0.835,-2.147 1.832,-3.68 3.441,-5.291c1.61,-1.609 3.143,-2.606 5.291,-3.441c1.62,-0.629 4.057,-1.379 8.542,-1.583c4.852,-0.222 6.307,-0.269 18.591,-0.269Zm0,-8.29c-12.495,0 -14.061,0.053 -18.969,0.277c-4.897,0.223 -8.241,1.002 -11.167,2.139c-3.026,1.176 -5.591,2.748 -8.149,5.306c-2.558,2.558 -4.131,5.123 -5.306,8.149c-1.138,2.926 -1.916,6.271 -2.139,11.167c-0.224,4.908 -0.277,6.474 -0.277,18.969c0,12.495 0.053,14.061 0.277,18.969c0.223,4.897 1.001,8.241 2.139,11.168c1.175,3.025 2.748,5.59 5.306,8.148c2.558,2.558 5.123,4.131 8.149,5.307c2.926,1.137 6.27,1.915 11.167,2.138c4.908,0.224 6.474,0.277 18.969,0.277c12.495,0 14.061,-0.053 18.969,-0.277c4.897,-0.223 8.241,-1.001 11.167,-2.138c3.026,-1.176 5.591,-2.749 8.149,-5.307c2.558,-2.558 4.131,-5.123 5.306,-8.148c1.138,-2.927 1.916,-6.271 2.139,-11.168c0.224,-4.908 0.277,-6.474 0.277,-18.969c0,-12.495 -0.053,-14.061 -0.277,-18.969c-0.223,-4.896 -1.001,-8.241 -2.139,-11.167c-1.175,-3.026 -2.748,-5.591 -5.306,-8.149c-2.558,-2.558 -5.123,-4.13 -8.149,-5.306c-2.926,-1.137 -6.27,-1.916 -11.167,-2.139c-4.908,-0.224 -6.474,-0.277 -18.969,-0.277Z" clip-rule="nonzero"/>
    </clipPath>
    <g clip-path="url(#_clip3)">
        <path d="M-21.175,81.42l39.754,-102.595l102.595,39.754l-39.754,102.595l-102.595,-39.754Z" style="fill:url(#_Radial4);fill-rule:nonzero;"/>
    </g>
    <clipPath id="_clip5">
        <path d="M50,65.333c-8.468,0 -15.333,-6.865 -15.333,-15.333c0,-8.468 6.865,-15.333 15.333,-15.333c8.468,0 15.333,6.865 15.333,15.333c0,8.468 -6.865,15.333 -15.333,15.333Zm0,-38.955c-13.046,0 -23.622,10.576 -23.622,23.622c0,13.046 10.576,23.622 23.622,23.622c13.046,0 23.622,-10.576 23.622,-23.622c0,-13.046 -10.576,-23.622 -23.622,-23.622Z" clip-rule="nonzero"/>
    </clipPath>
    <g clip-path="url(#_clip5)">
        <path d="M53.398,13.704l32.898,39.695l-39.694,32.898l-32.899,-39.695l39.695,-32.898Z" style="fill:url(#_Linear6);fill-rule:nonzero;"/>
    </g>
    <clipPath id="_clip7">
        <path d="M50,65.333c-8.468,0 -15.333,-6.865 -15.333,-15.333c0,-8.468 6.865,-15.333 15.333,-15.333c8.468,0 15.333,6.865 15.333,15.333c0,8.468 -6.865,15.333 -15.333,15.333Zm0,-38.955c-13.046,0 -23.622,10.576 -23.622,23.622c0,13.046 10.576,23.622 23.622,23.622c13.046,0 23.622,-10.576 23.622,-23.622c0,-13.046 -10.576,-23.622 -23.622,-23.622Z" clip-rule="nonzero"/>
    </clipPath>
    <g clip-path="url(#_clip7)">
        <path d="M16.355,64.853l18.791,-48.497l48.496,18.792l-18.792,48.496l-48.495,-18.791Z" style="fill:url(#_Radial8);fill-rule:nonzero;"/>
    </g>
    <path d="M69.035,25.444c0,3.049 2.472,5.521 5.52,5.521c3.049,0 5.52,-2.472 5.52,-5.521c0,-3.047 -2.471,-5.519 -5.52,-5.519c-3.048,0 -5.52,2.472 -5.52,5.519Z" style="fill:url(#_Linear9);"/>
    <defs>
        <linearGradient id="_Linear2" x1="0" y1="0" x2="1" y2="0" gradientUnits="userSpaceOnUse" gradientTransform="matrix(77.4047,93.3955,-93.3955,77.4047,10.9464,2.87835)"><stop offset="0" style="stop-color:#405de6;stop-opacity:1"/><stop offset="1" style="stop-color:#fd1d1d;stop-opacity:1"/></linearGradient>
        <radialGradient id="_Radial4" cx="0" cy="0" r="1" gradientUnits="userSpaceOnUse" gradientTransform="matrix(25.5716,-65.9939,82.299,31.8896,23.6931,93.6764)"><stop offset="0" style="stop-color:#fccc63;stop-opacity:1"/><stop offset="0.53" style="stop-color:#f67738;stop-opacity:1"/><stop offset="1" style="stop-color:#833ab4;stop-opacity:0"/></radialGradient>
        <linearGradient id="_Linear6" x1="0" y1="0" x2="1" y2="0" gradientUnits="userSpaceOnUse" gradientTransform="matrix(77.4047,93.3955,-93.3955,77.4047,10.9464,2.87835)"><stop offset="0" style="stop-color:#405de6;stop-opacity:1"/><stop offset="1" style="stop-color:#fd1d1d;stop-opacity:1"/></linearGradient>
        <radialGradient id="_Radial8" cx="0" cy="0" r="1" gradientUnits="userSpaceOnUse" gradientTransform="matrix(25.5716,-65.9939,82.299,31.8896,23.6931,93.6764)"><stop offset="0" style="stop-color:#fccc63;stop-opacity:1"/><stop offset="0.53" style="stop-color:#f67738;stop-opacity:1"/><stop offset="1" style="stop-color:#833ab4;stop-opacity:0"/></radialGradient>
        <linearGradient id="_Linear9" x1="0" y1="0" x2="1" y2="0" gradientUnits="userSpaceOnUse" gradientTransform="matrix(77.7933,93.8644,-93.8644,77.7933,10.5985,2.79371)"><stop offset="0" style="stop-color:#405de6;stop-opacity:1"/><stop offset="1" style="stop-color:#fd1d1d;stop-opacity:1"/></linearGradient>
    </defs>
</svg>
