<svg xmlns="http://www.w3.org/2000/svg" viewBox="0 0 512.033 512.033">
	<path fill="#7E5C62" d="M256.017,160.002c-4.422,0-8-3.582-8-8c0-50.566-7.742-117.113-29.562-138.254c-3.18-3.074-3.258-8.141-0.18-11.312c3.063-3.184,8.148-3.25,11.305-0.18c31.953,30.953,34.437,122.441,34.437,149.746C264.017,156.42,260.439,160.002,256.017,160.002z"/>
	<path fill="#FF4F19" d="M368.407,128.092c-28.422-4.332-50.734,2.18-70.406,7.918c-14.07,4.109-27.359,7.992-41.984,7.992s-27.914-3.883-41.984-7.992c-19.68-5.742-42-12.238-70.406-7.918C96.142,135.334,39.54,162.92,39.54,253.213c0,85.32,28.312,202.008,108.109,250.078c21.016,12.656,45.125,8.938,70.656,5.023c12.375-1.906,25.172-3.875,37.711-3.875s25.336,1.969,37.711,3.875c12.25,1.883,24.18,3.719,35.594,3.719c12.367,0,24.141-2.156,35.063-8.742c79.797-48.07,108.109-164.758,108.109-250.078C472.493,162.92,415.892,135.334,368.407,128.092z"/>
	<path fill="#E3001E" d="M256.02,144.002h-0.003c-14.625,0-27.914-3.883-41.984-7.992c-19.68-5.742-42-12.238-70.406-7.918C96.142,135.334,39.54,162.92,39.54,253.213c0,85.32,28.312,202.008,108.109,250.078c21.016,12.656,45.125,8.938,70.656,5.023c12.375-1.906,25.172-3.875,37.711-3.875h0.003V144.002H256.02z"/>
	<path fill="#60DC4D" d="M367.73,21.908c0.946-7.382,0.837-14.378-0.021-20.999c-6.62-0.858-13.617-0.967-20.999-0.021c-47.93,6.139-91.762,49.971-97.901,97.901c-0.945,7.382-0.837,14.378,0.022,20.998c6.62,0.858,13.617,0.966,20.998,0.021C317.759,113.669,361.591,69.837,367.73,21.908z"/>
	<circle fill="#FF8C62" cx="383.798" cy="216.002" r="40"/>
	<path fill="#00C37A" d="M367.065,0.866c-6.434-0.785-13.205-0.893-20.354,0.022c-47.93,6.139-91.762,49.97-97.901,97.901c-0.916,7.149-0.807,13.919-0.022,20.354L367.065,0.866z"/>
</svg>
