<svg xmlns="http://www.w3.org/2000/svg" viewBox="0 0 512 512">
	<path fill="#4BB9EC" d="M448.109,0h-352c-13.234,0-24,10.766-24,24v464c0,13.234,10.766,24,24,24h352c13.234,0,24-10.766,24-24V24C472.109,10.766,461.344,0,448.109,0z"/>
	<path fill="#009BCA" d="M120.109,0H87.891c-13.234,0-24,10.766-24,24v464c0,13.234,10.766,24,24,24h32.219V0H120.109z"/>
	<path fill="#3482AC" d="M376.109,332h-0.572c-0.071-0.272-0.084-0.545-0.17-0.816l-45.279-143.383c5.679-0.948,10.021-5.85,10.021-11.801c0-6.629-5.375-12-12-12h-64c-6.625,0-12,5.371-12,12c0,5.951,4.343,10.853,10.021,11.801l-45.279,143.383c-0.086,0.271-0.1,0.544-0.17,0.816h-0.572c-6.625,0-12,5.371-12,12s5.375,12,12,12h32c6.625,0,12-5.371,12-12c0-5.951-4.342-10.853-10.021-11.801L258.994,304h74.231l8.905,28.199c-5.678,0.948-10.021,5.85-10.021,11.801c0,6.629,5.375,12,12,12h32c6.625,0,12-5.371,12-12S382.734,332,376.109,332z M269.099,272l26.269-83.184c0.086-0.271,0.1-0.544,0.17-0.816h1.144c0.071,0.272,0.084,0.545,0.17,0.816L323.12,272H269.099z"/>
	<path fill="#5C546A" d="M80.109,64H47.891c-4.422,0-8-3.582-8-8s3.578-8,8-8H80.11c4.422,0,8,3.582,8,8S84.531,64,80.109,64z"/>
	<path fill="#5C546A" d="M80.109,104H47.891c-4.422,0-8-3.582-8-8s3.578-8,8-8H80.11c4.422,0,8,3.582,8,8C88.109,100.418,84.531,104,80.109,104z"/>
	<path fill="#5C546A" d="M80.109,144H47.891c-4.422,0-8-3.582-8-8s3.578-8,8-8H80.11c4.422,0,8,3.582,8,8S84.531,144,80.109,144z"/>
	<path fill="#5C546A" d="M80.109,184H47.891c-4.422,0-8-3.582-8-8s3.578-8,8-8H80.11c4.422,0,8,3.582,8,8S84.531,184,80.109,184z"/>
	<path fill="#5C546A" d="M80.109,224H47.891c-4.422,0-8-3.582-8-8s3.578-8,8-8H80.11c4.422,0,8,3.582,8,8S84.531,224,80.109,224z"/>
	<path fill="#5C546A" d="M80.109,264H47.891c-4.422,0-8-3.582-8-8s3.578-8,8-8H80.11c4.422,0,8,3.582,8,8S84.531,264,80.109,264z"/>
	<path fill="#5C546A" d="M80.109,304H47.891c-4.422,0-8-3.582-8-8s3.578-8,8-8H80.11c4.422,0,8,3.582,8,8S84.531,304,80.109,304z"/>
	<path fill="#5C546A" d="M80.109,344H47.891c-4.422,0-8-3.582-8-8s3.578-8,8-8H80.11c4.422,0,8,3.582,8,8S84.531,344,80.109,344z"/>
	<path fill="#5C546A" d="M80.109,384H47.891c-4.422,0-8-3.582-8-8s3.578-8,8-8H80.11c4.422,0,8,3.582,8,8S84.531,384,80.109,384z"/>
	<path fill="#5C546A" d="M80.109,424H47.891c-4.422,0-8-3.582-8-8s3.578-8,8-8H80.11c4.422,0,8,3.582,8,8S84.531,424,80.109,424z"/>
	<path fill="#5C546A" d="M80.109,464H47.891c-4.422,0-8-3.582-8-8s3.578-8,8-8H80.11c4.422,0,8,3.582,8,8S84.531,464,80.109,464z"/>
	<path fill="#3482AC" d="M120.109,496c-4.422,0-8-3.582-8-8V24c0-4.418,3.578-8,8-8s8,3.582,8,8v464C128.109,492.418,124.531,496,120.109,496z"/>
</svg>
